<svg xmlns="http://www.w3.org/2000/svg" viewBox="0 0 320 320">
  <rect width="320" height="320" fill="#fff"/>
  <path d="M72 118 160 50l88 68" fill="none" stroke="#000" stroke-width="8" stroke-linecap="round" stroke-linejoin="round"/>
  <path d="M86 130v86h26" fill="none" stroke="#C4A484" stroke-width="7" stroke-linecap="round" stroke-linejoin="round"/>
  <path d="M234 130v86h-26" fill="none" stroke="#C4A484" stroke-width="7" stroke-linecap="round" stroke-linejoin="round"/>
  <path d="M160 54v48" fill="none" stroke="#C4A484" stroke-width="5" stroke-linecap="round"/>
  <path d="M160 104c0-4 3-7 7-7s7 3 7 7" fill="none" stroke="#000" stroke-width="5" stroke-linecap="round"/>
  <path d="M143 112c3-11 13-18 24-18s21 7 24 18" fill="none" stroke="#000" stroke-width="5" stroke-linecap="round" stroke-linejoin="round"/>
  <path d="M141 113h50" fill="none" stroke="#000" stroke-width="5" stroke-linecap="round"/>
  <path d="M160 129c7 8 10 16 10 25 0 12-6 22-10 27-4-5-10-15-10-27 0-9 3-17 10-25Zm0 12c-3 5-5 10-5 15 0 7 3 13 5 17 2-4 5-10 5-17 0-5-2-10-5-15Z" fill="#C4A484"/>
  <path d="M148 159h24l4 20h-32l4-20Z" fill="none" stroke="#000" stroke-width="5" stroke-linejoin="round"/>
  <rect x="124" y="184" width="72" height="18" rx="2" fill="none" stroke="#000" stroke-width="6"/>
  <rect x="135" y="192" width="50" height="6" rx="2" fill="#000"/>
  <path d="M142 202l-12 40" fill="none" stroke="#000" stroke-width="8" stroke-linecap="round"/>
  <path d="M156 202l-8 40" fill="none" stroke="#000" stroke-width="8" stroke-linecap="round"/>
  <path d="M178 202l8 40" fill="none" stroke="#000" stroke-width="8" stroke-linecap="round"/>
  <text x="160" y="293" text-anchor="middle" font-size="34" font-family="Georgia, serif">
    <tspan fill="#C4A484">Deco</tspan><tspan fill="#000">table.</tspan>
  </text>
</svg>
